# xmcd
#
# Track frame offsets: 
#        150
#        4179
#        13175
#        22103
#        31082
#        45554
#        54455
#        63258
#        78979
#        88197
#        97103
#        106272
#        115186
#        124195
#        134262
#        144614
#        153611
#        162579
#        171647
#        181358
#        186287
#        195182
#        204072
#        217181
#        226991
#        238744
#        244541
#        245448
#
# Disc length: 3392 seconds
#
# Revision: 0
# Processed by: cddbd v1.5.2PL0 Copyright (c) Steve Scherf et al.
# Submitted via: ExactAudioCopy v0.95b4
#
DISCID=860d3e1c
DTITLE=Steve Kaufman - Four Hour Bluegrass Workout Vol2 [CD4-Fast)
DYEAR=2008
DGENRE=Bluegrass
TTITLE0=Tuning Up the Guitar
TTITLE1=Molly Bloom
TTITLE2=Monroe's Hornpipe
TTITLE3=New Five Cents
TTITLE4=Nothing To It
TTITLE5=Paddy on the Turnpike
TTITLE6=Peacock Rag
TTITLE7=Rawhide
TTITLE8=Road to Columbus
TTITLE9=Roanoke
TTITLE10=Sail Away Ladies
TTITLE11=Sailor's Hornpipe
TTITLE12=Sally Gooden
TTITLE13=Shuckin' the Corn
TTITLE14=Silver Bells
TTITLE15=Snowflake Reel
TTITLE16=Spinning Wheels
TTITLE17=Stone's Rag
TTITLE18=Stony Creek
TTITLE19=Sugar Foot Rag
TTITLE20=Sweet Georgia Brown
TTITLE21=Tennessee Wagoner
TTITLE22=Texas Gales
TTITLE23=Wheel Hoss
TTITLE24=Whistlin' Ruffus
TTITLE25=Wildwood Flower
TTITLE26=Congratulations - You'e made it!
TTITLE27=Woodchopper's Reel
EXTD=
EXTT0=
EXTT1=
EXTT2=
EXTT3=
EXTT4=
EXTT5=
EXTT6=
EXTT7=
EXTT8=
EXTT9=
EXTT10=
EXTT11=
EXTT12=
EXTT13=
EXTT14=
EXTT15=
EXTT16=
EXTT17=
EXTT18=
EXTT19=
EXTT20=
EXTT21=
EXTT22=
EXTT23=
EXTT24=
EXTT25=
EXTT26=
EXTT27=
PLAYORDER=
